<svg xmlns="http://www.w3.org/2000/svg" viewBox="0 0 760 240" font-family="-apple-system, sans-serif">
  <rect width="760" height="240" fill="#0e1530"/>
  <text x="380" y="26" fill="#e6ecff" font-size="16" font-weight="700" text-anchor="middle">vöôt / 20172026</text>
  <line x1="40" y1="190" x2="720" y2="190" stroke="#38446b" stroke-width="2"/>
  <g font-size="10" fill="#93a3cc" text-anchor="middle">
    <text x="40"  y="210">2017</text><line x1="40"  y1="185" x2="40"  y2="195" stroke="#9aa6c8"/>
    <text x="115" y="210">2018</text><line x1="115" y1="185" x2="115" y2="195" stroke="#9aa6c8"/>
    <text x="190" y="210">2019</text><line x1="190" y1="185" x2="190" y2="195" stroke="#9aa6c8"/>
    <text x="265" y="210">2020</text><line x1="265" y1="185" x2="265" y2="195" stroke="#9aa6c8"/>
    <text x="340" y="210">2021</text><line x1="340" y1="185" x2="340" y2="195" stroke="#9aa6c8"/>
    <text x="415" y="210">2022</text><line x1="415" y1="185" x2="415" y2="195" stroke="#9aa6c8"/>
    <text x="490" y="210">2023</text><line x1="490" y1="185" x2="490" y2="195" stroke="#9aa6c8"/>
    <text x="565" y="210">2024</text><line x1="565" y1="185" x2="565" y2="195" stroke="#9aa6c8"/>
    <text x="640" y="210">2025</text><line x1="640" y1="185" x2="640" y2="195" stroke="#9aa6c8"/>
    <text x="715" y="210">2026</text><line x1="715" y1="185" x2="715" y2="195" stroke="#9aa6c8"/>
  </g>

  <!-- node bubbles -->
  <g font-size="11" font-weight="700" text-anchor="middle">
    <g transform="translate(40,160)"><circle r="11" fill="#7c4dff"/><text fill="#fff" y="3">T</text>
      <text fill="#cabfff" y="-18" font-size="10">Transformer</text></g>
    <g transform="translate(40,130)"><circle r="9" fill="#0d47a1"/><text fill="#fff" y="3" font-size="9">P</text>
      <text fill="#90caf9" y="-14" font-size="10">PPO</text></g>
    <g transform="translate(115,160)"><circle r="9" fill="#424242"/><text fill="#fff" y="3" font-size="9">B</text>
      <text fill="#cbd5e1" y="-14" font-size="10">Bitter Lesson (2019)</text></g>
    <g transform="translate(265,130)"><circle r="11" fill="#c62828"/><text fill="#fff" y="3">G</text>
      <text fill="#ffd6c4" y="-18" font-size="10">GPT-3</text></g>
    <g transform="translate(265,160)"><circle r="11" fill="#2e7d32"/><text fill="#fff" y="3">V</text>
      <text fill="#d6f1d6" y="-14" font-size="10">ViT / DETR</text></g>
    <g transform="translate(415,160)"><circle r="11" fill="#ef6c00"/><text fill="#fff" y="3">B</text>
      <text fill="#ffe2c1" y="-14" font-size="10">BEVFormer</text></g>
    <g transform="translate(415,130)"><circle r="14" fill="#ef6c00"/><text fill="#fff" y="3">U</text>
      <text fill="#ffe2c1" y="-20" font-size="11">UniAD</text></g>
    <g transform="translate(415,90)"><circle r="11" fill="#ef6c00"/><text fill="#fff" y="3">P</text>
      <text fill="#ffe2c1" y="-14" font-size="10">PlanT</text></g>
    <g transform="translate(490,130)"><circle r="13" fill="#c62828"/><text fill="#fff" y="3">D</text>
      <text fill="#ffd6c4" y="-18" font-size="10">DiLu / Agent-Driver</text></g>
    <g transform="translate(490,160)"><circle r="11" fill="#6a1b9a"/><text fill="#fff" y="3">S</text>
      <text fill="#e1c4ff" y="-14" font-size="10">Spike-driven Tx</text></g>
    <g transform="translate(490,90)"><circle r="11" fill="#2e7d32"/><text fill="#fff" y="3">D</text>
      <text fill="#d6f1d6" y="-14" font-size="10">DINOv2</text></g>
    <g transform="translate(565,130)"><circle r="13" fill="#c62828"/><text fill="#fff" y="3">D</text>
      <text fill="#ffd6c4" y="-18" font-size="10">DriveVLM</text></g>
    <g transform="translate(640,130)"><circle r="13" fill="#2e7d32"/><text fill="#fff" y="3">D</text>
      <text fill="#d6f1d6" y="-18" font-size="10">DINOv3</text></g>
    <g transform="translate(715,130)"><circle r="14" fill="#7c4dff"/><text fill="#fff" y="3">C</text>
      <text fill="#cabfff" y="-20" font-size="11">CF-VLA</text></g>
  </g>

  <text x="40" y="50" fill="#93a3cc" font-size="10">Đ:(¤’Ůą ¶ ­>týŃaď0‚ątą®</text>
</svg>
